<?xml version="1.0" standalone="no"?><!DOCTYPE svg PUBLIC "-//W3C//DTD SVG 1.1//EN" "http://www.w3.org/Graphics/SVG/1.1/DTD/svg11.dtd"><svg t="1543305378723" class="icon" style="" viewBox="0 0 1024 1024" version="1.1" xmlns="http://www.w3.org/2000/svg" p-id="3248" xmlns:xlink="http://www.w3.org/1999/xlink" width="128" height="128"><defs><style type="text/css"></style></defs><path d="M512 67C266.265 67 67 266.262 67 512.008 67 757.753 266.236 956.985 512 957c245.735-0.015 445-199.262 445-445.007C957 266.247 757.764 67 512 67zM512 927.319c-229.019 0-415.333-186.297-415.333-415.312 0-229.03 186.314-415.342 415.333-415.313 229.019-0.015 415.334 186.282 415.334 415.313C927.334 741.022 741.019 927.319 512 927.319z" p-id="3249" fill="#01d8a2"></path><path d="M731.038 495.117c-24.583-16.991-37.04-41.153-37.04-71.818 0-134.846-108.846-183.792-181.998-183.792s-181.998 48.946-181.998 183.792c0 30.665-12.457 54.827-37.055 71.833-18.411 12.762-60.84 63.389-36.344 143.261l2.824 9.242 9.561-1.521c18.976-3.014 28.929-19.918 34.433-29.841 4.549 19.077 22.945 36.678 35.432 44.326 1.261 0.782 2.13 1.637 2.709 2.36-0.507 0.087-1.13 0.16-1.897 0.203-13.718 0.695-31.317 9.546-38.372 25.133-5.215 11.486-3.332 23.813 5.302 34.721 23.365 29.507 86.826 31.796 105.73 31.796 27.74 0 50.96-5.649 69.024-16.774 2.868-1.781 5.403-3.592 7.837-5.345 7.04-5.085 11.284-8.155 22.814-8.155s15.774 3.07 22.814 8.155c2.434 1.753 4.969 3.563 7.837 5.345 18.064 11.125 41.284 16.774 69.025 16.774 18.903 0 82.365-2.289 105.729-31.796 8.634-10.907 10.517-23.234 5.302-34.721-7.054-15.587-24.654-24.438-38.386-25.133-0.769-0.043-1.377-0.116-1.884-0.203 0.565-0.724 1.449-1.578 2.694-2.347 12.501-7.662 30.897-25.263 35.446-44.34 5.504 9.923 15.457 26.827 34.433 29.841l9.561 1.521 2.824-9.242C791.893 558.521 749.464 507.894 731.038 495.117zM749.493 619.084c-4.259-4.201-7.547-10.14-10.039-14.659-0.984-1.782-1.854-3.347-2.65-4.621-3.129-4.969-11.676-14.369-21.671-14.369-4.172 0-8.025 1.637-10.864 4.62-3.694 3.883-5.302 9.488-4.911 17.137 0.565 11.183-14.674 27.595-25.856 34.461-10.647 6.548-16.065 17.687-13.501 27.711 2.404 9.415 11.082 15.412 23.192 16.021 7.503 0.377 16.498 6.026 19.251 12.096 1.058 2.347 1.955 6.112-2.478 11.719-12.776 16.137-53.554 23.364-88.289 23.364-23.555 0-42.85-4.533-57.35-13.471-2.375-1.464-4.461-2.984-6.489-4.433-8.012-5.809-17.108-12.371-35.838-12.371s-27.826 6.563-35.838 12.371c-2.028 1.448-4.114 2.969-6.489 4.433-14.5 8.938-33.795 13.471-57.349 13.471-34.736 0-75.514-7.228-88.29-23.364-4.433-5.606-3.534-9.372-2.478-11.719 2.753-6.069 11.733-11.719 19.237-12.096 12.124-0.608 20.802-6.605 23.206-16.021 2.564-10.039-2.854-21.163-13.516-27.726-11.168-6.852-26.407-23.264-25.842-34.446 0.391-7.663-1.217-13.254-4.91-17.137-2.84-2.983-6.692-4.62-10.864-4.62-9.995 0-18.543 9.4-21.7 14.398-0.768 1.245-1.637 2.81-2.622 4.592-2.491 4.52-5.78 10.458-10.039 14.659-15.499-70.936 30.624-105.324 31.116-105.657 38.546-26.668 46.629-63.735 46.629-90.128 0-127.776 104.5-161.542 159.748-161.542s159.748 33.766 159.748 161.542c0 26.393 8.083 63.46 46.614 90.113C718.869 513.76 764.992 548.148 749.493 619.084z" p-id="3250" fill="#01d8a2"></path></svg>