<?xml version="1.0" standalone="no"?><!DOCTYPE svg PUBLIC "-//W3C//DTD SVG 1.1//EN" "http://www.w3.org/Graphics/SVG/1.1/DTD/svg11.dtd"><svg t="1543305332839" class="icon" style="" viewBox="0 0 1024 1024" version="1.1" xmlns="http://www.w3.org/2000/svg" p-id="1981" xmlns:xlink="http://www.w3.org/1999/xlink" width="128" height="128"><defs><style type="text/css"></style></defs><path d="M512.73678 968.402751c-246.990301 0-447.905216-200.953801-447.905216-447.911356 0-246.943228 200.914916-447.898053 447.905216-447.898053 246.947322 0 447.904193 200.953801 447.904193 447.898053C960.640973 767.449973 759.684102 968.402751 512.73678 968.402751zM512.73678 89.832981c-237.487879 0-430.665577 193.171558-430.665577 430.658414s193.177698 430.658414 430.665577 430.658414c237.4449 0 430.664553-193.171558 430.664553-430.658414S750.180658 89.832981 512.73678 89.832981zM615.259782 454.626291c7.009647 0 13.96199 0.534166 20.772093 1.310855-18.720364-87.122243-111.826901-151.754263-217.995943-151.754263-118.79357 0-216.116129 80.980359-216.116129 183.831842 0 59.268872 32.413224 108.029412 86.48063 145.877415l-21.598924 64.989153 75.53944-37.912471c26.998911 5.342682 48.654117 10.849092 75.696006 10.849092 6.752798 0 13.477966-0.314155 20.117177-0.854461-4.188392-14.46034-6.639211-29.570479-6.639211-45.25674C431.512874 531.268856 512.564865 454.626291 615.259782 454.626291zM499.101225 396.056338c16.213263 0 27.027563 10.671037 27.027563 26.948769 0 16.2061-10.813277 27.055193-27.027563 27.055193-16.22759 0-32.483832-10.849092-32.483832-27.055193C466.618417 406.727375 482.873636 396.056338 499.101225 396.056338zM347.824847 450.060299c-16.213263 0-32.598442-10.849092-32.598442-27.055193 0-16.276708 16.384156-26.948769 32.598442-26.948769 16.184611 0 26.912953 10.671037 26.912953 26.948769C374.7378 439.211207 364.009458 450.060299 347.824847 450.060299zM812.484655 623.100354c0-86.424348-86.424348-156.841118-183.504384-156.841118-102.850459 0-183.874821 70.416769-183.874821 156.841118 0 86.573751 81.023338 156.798139 183.874821 156.798139 21.512966 0 43.169195-5.385661 64.796772-10.813277l59.311851 32.483832-16.299221-54.011124C780.214694 715.015763 812.484655 671.818939 812.484655 623.100354zM569.33994 596.044138c-10.770298 0-21.626553-10.714016-21.626553-21.606087 0-10.79281 10.856255-21.609157 21.626553-21.609157 16.3422 0 27.04189 10.81737 27.04189 21.609157C596.381829 585.331145 585.68214 596.044138 569.33994 596.044138zM688.205141 596.044138c-10.685363 0-21.456684-10.714016-21.456684-21.606087 0-10.79281 10.770298-21.609157 21.456684-21.609157 16.22759 0 27.083845 10.81737 27.083845 21.609157C715.290009 585.331145 704.432731 596.044138 688.205141 596.044138z" p-id="1982" fill="#01d8a2"></path></svg>